<svg width="379" height="379" viewBox="0 0 379 379" fill="none" xmlns="http://www.w3.org/2000/svg">
<path d="M329.098 72.7996C321.033 64.7301 311.456 58.3289 300.916 53.9615C290.376 49.5941 279.078 47.3462 267.669 47.3462C256.26 47.3462 244.962 49.5941 234.422 53.9615C223.881 58.3289 214.305 64.7301 206.239 72.7996L189.5 89.5388L172.761 72.7996C156.469 56.5075 134.372 47.3546 111.331 47.3546C88.2908 47.3546 66.1939 56.5075 49.9018 72.7996C33.6096 89.0917 24.4568 111.189 24.4568 134.229C24.4568 157.27 33.6096 179.367 49.9018 195.659L189.5 335.257L329.098 195.659C337.168 187.593 343.569 178.017 347.937 167.476C352.304 156.936 354.552 145.638 354.552 134.229C354.552 122.82 352.304 111.522 347.937 100.982C343.569 90.4418 337.168 80.8653 329.098 72.7996Z" stroke="url(#paint0_linear_24_503)" stroke-width="31" stroke-linecap="round" stroke-linejoin="round"/>
<defs>
<linearGradient id="paint0_linear_24_503" x1="189.504" y1="47.3462" x2="189.504" y2="335.257" gradientUnits="userSpaceOnUse">
<stop stop-color="#FF416C"/>
<stop offset="0.315" stop-color="#DF395E"/>
<stop offset="0.645" stop-color="#BD3050"/>
<stop offset="1" stop-color="#992741"/>
</linearGradient>
</defs>
</svg>
